# xmcd
# Copyright (C) 1995-1998 Ti Kan
#
# Track frame offsets:
#       150
#       11115
#       26718
#       43817
#       57168
#
# Disc length: 913 seconds
#
# Revision: 0
# Processed by: cddbd v1.5.2PL0 Copyright (c) Steve Scherf et al.
# Submitted via: CD-Transfer v1.0
#
DISCID=3d038f05
DTITLE=Orig. Zillertal Sound - 
DYEAR=09
DGENRE=
TTITLE0=Zillertaler Sein A Knaller (09)
TTITLE1=S´ Isch Zeit (09)
TTITLE2=Auf Teufl Kim Aussa (09)
TTITLE3=Bärig Almerisch (09)
TTITLE4=Im Zillertol Woass I A Platzerl (09)
EXTD=
EXTT0=
EXTT1=
EXTT2=
EXTT3=
EXTT4=
PLAYORDER=
